<svg width="32" height="32" viewBox="0 0 32 32" fill="none" xmlns="http://www.w3.org/2000/svg">
<path d="M16 0C7.2 0 0 7.2 0 16C0 24.8 7.2 32 16 32C24.8 32 32 24.8 32 16C32 7.2 24.8 0 16 0Z"/>
<path d="M26.6667 16.2448C26.6667 15.5195 26.6071 14.7904 26.4784 14.0771H16.2148V18.1843H22.0923C21.8482 19.5088 21.0646 20.6813 19.9168 21.4251V24.09H23.4238C25.4839 22.234 26.6667 19.4903 26.6667 16.2448Z" fill="#4285F4"/>
<path d="M16.2144 26.6664C19.1489 26.6664 21.6244 25.7222 23.4281 24.0916L19.9211 21.4267C18.9455 22.077 17.6859 22.4461 16.2182 22.4461C13.3793 22.4461 10.9719 20.5688 10.1079 18.0449H6.49023V20.7923C8.33742 24.393 12.0999 26.6664 16.2144 26.6664Z" fill="#34A853"/>
<path d="M10.1054 18.0442C9.64933 16.7197 9.64933 15.2848 10.1054 13.9603V11.2129H6.49057C4.94715 14.2265 4.94715 17.778 6.49057 20.7916L10.1054 18.0442Z" fill="#FBBC04"/>
<path d="M16.2144 9.55543C17.7654 9.53224 19.2653 10.1045 20.3885 11.1545L23.4952 8.10939C21.5279 6.29883 18.917 5.30357 16.2135 5.33418C12.0989 5.33418 8.33644 7.60759 6.48926 11.2129L10.1041 13.9603C10.9643 11.4328 13.3755 9.55543 16.2144 9.55543Z" fill="#EA4335"/>
</svg>
